<svg xmlns="http://www.w3.org/2000/svg" width="35" height="35" viewBox="0 0 35 35">
    <g fill="none">
        <path fill="#FDC13C" d="M17.392 0C7.787 0 0 7.787 0 17.392s7.787 17.392 17.392 17.392 17.392-7.787 17.392-17.392S26.997 0 17.392 0zm0 1.544c8.752 0 15.848 7.095 15.848 15.848 0 8.752-7.096 15.848-15.848 15.848-8.753 0-15.848-7.096-15.848-15.848 0-8.753 7.095-15.848 15.848-15.848z"/>
        <path fill="#1F3F79" d="M17.392 1.544c8.752 0 15.848 7.095 15.848 15.848 0 8.752-7.096 15.848-15.848 15.848-8.753 0-15.848-7.096-15.848-15.848 0-8.753 7.095-15.848 15.848-15.848z"/>
        <path fill="#FFF" d="M21.401 18.715c-.163-.09-.336-.162-.514-.216-.392-.184-.81-.3-1.24-.345-.033-.287-.093-.57-.18-.844l-.037-.103-.113-.366c-.157-.473-.614-.78-1.112-.746h-3.654c-.077-.153-.146-.309-.206-.469l-.206-.514c-.803-1.992-1.307-2.47-3-1.992l-.294.093c-.24.068-.433.245-.522.478-.09.233-.064.494.069.705l2.573 5.106c.352.655.89 1.192 1.545 1.544-.072.443-.13.819-.175 1.128l-.052.427c0 .206-.041.514-.062.937l-.03.92h-.294c-.151-.024-.302.043-.386.17-.084.129-.084.294 0 .423.084.128.235.194.386.17H21.973c.213 0 .386-.173.386-.386 0-.214-.173-.386-.386-.386h-1.03c-.051-.634-.17-1.26-.355-1.869-.123-.365-.273-.736-.437-1.106H21.247c.139.164.299.35.484.555l.304.33 1.199 1.26.216.248c.288.264.694.356 1.068.243.374-.113.66-.415.754-.794.216-.638-1.539-3.34-3.87-4.601zm-3.206-1.848c.092-.016.187.006.263.061.076.055.126.14.138.232 0 .072.041.144.067.216l.093.284c.04.143.071.29.093.437-1.03 0-2.162.154-2.507.154-.345 0-.942-.648-1.385-1.384h3.238zm-3.269 7.582c.026-.88.057-1.483.088-1.787v-.128c0-.129.036-.283.062-.453l.087-.566h4.118c.198.426.37.865.515 1.312.161.529.272 1.072.329 1.622h-5.199zM16.59 20.7c-1.477 0-2.357-.483-3-1.6l-2.574-5.147c0-.026 0 0 .03-.031l.335-.108c1.07-.314 1.323-.155 1.95 1.405l.33.839c.608 1.492 1.678 2.954 2.661 2.954h.227l1.03-.092c.313 0 .586-.047.848-.052h.484c.552-.009 1.099.098 1.606.314.303.45.467.977.474 1.518h-4.401zm7.932 2.368c-.124.35-.412.438-.587.221-.103-.123-.258-.293-.515-.555l-.515-.546-.628-.67c-.175-.19-.319-.354-.442-.514l-.165-.206v-.417-.283c-.016-.142-.049-.282-.098-.417.501.268.955.616 1.344 1.03l.617.756c.865 1.076 1.07 1.416 1.01 1.601h-.021zM11.365 12.631l.128-.041c.906-.304 1.117-.886.721-1.822-.474-1.107-1.143-1.431-2.095-1.03-.952.402-.7 1.76-.175 2.574.35.484.736.556 1.42.319zm-.777-.767c-.289-.443-.417-1.328-.175-1.426.514-.221.777-.103 1.086.633.241.566.205.66-.366.824-.401.134-.443.129-.545-.031zm8.09 10.716c0 .213-.172.386-.385.386H16.09c-.213 0-.386-.173-.386-.386 0-.213.173-.386.386-.386h2.203c.213 0 .386.173.386.386z"/>
    </g>
</svg>
