<svg xmlns="http://www.w3.org/2000/svg" width="35" height="35" viewBox="0 0 35 35">
    <g fill="none">
        <path fill="#FDC13C" d="M17.392 0C7.787 0 0 7.787 0 17.392s7.787 17.392 17.392 17.392 17.392-7.787 17.392-17.392S26.997 0 17.392 0zm0 1.544c8.752 0 15.848 7.095 15.848 15.848 0 8.752-7.096 15.848-15.848 15.848-8.753 0-15.848-7.096-15.848-15.848 0-8.753 7.095-15.848 15.848-15.848z"/>
        <path fill="#1F3F79" d="M17.392 1.544c8.752 0 15.848 7.095 15.848 15.848 0 8.752-7.096 15.848-15.848 15.848-8.753 0-15.848-7.096-15.848-15.848 0-8.753 7.095-15.848 15.848-15.848z"/>
        <path fill="#FFF" d="M23.082 12.05c.112.124.23.241.347.353.141.148.29.287.447.418l.589-.589-.8-.764-.583.582zm-.24-.259l-.048-.1.041.047.006.053zM18.534 8.81c.238.003.43.197.43.435v1.124c0 .237-.193.43-.43.43h-.111c-.138-.006-.271.044-.372.138-.1.094-.16.224-.164.361v.177c3.68.463 6.453 3.568 6.5 7.276 0 4.176-3.385 7.562-7.562 7.562-4.176 0-7.561-3.386-7.561-7.562.045-3.697 2.804-6.796 6.47-7.27v-.183c-.004-.137-.063-.267-.164-.36-.1-.095-.234-.145-.371-.14h-.112c-.237 0-.43-.192-.43-.43V9.245c0-.238.192-.432.43-.435h3.447zm-1.7 3.47c-3.63-.052-6.62 2.84-6.688 6.471.15 3.585 3.1 6.414 6.688 6.414 3.588 0 6.538-2.83 6.689-6.414-.068-3.63-3.058-6.523-6.689-6.47zm4.118 2.742c.155.165.155.423 0 .588l-3.835 4.159c-.082.084-.195.131-.312.131-.118 0-.23-.047-.312-.131l-2.212-2.183c-.15-.093-.228-.268-.198-.442s.162-.313.335-.352c.172-.038.35.032.452.177l1.894 1.87 3.53-3.83c.08-.1.202-.16.331-.16.13 0 .253.06.333.16l-.006.013zm3.106-4.318l1.253 1.176c.122.117.177.287.147.453-.023.127-.087.243-.183.33l-1.082 1.035c-.082.078-.192.12-.306.118-.417 0-1.835-1.612-1.84-1.63-.072-.15-.036-.33.087-.44l1.077-1.036c.1-.093.224-.155.359-.177.18-.026.363.033.494.16l-.006.01zm-5.97-1.03H15.5v.295c.624.139 1.07.69 1.076 1.33h.436c.002-.642.45-1.195 1.076-1.33v-.294z"/>
    </g>
</svg>
