<svg xmlns="http://www.w3.org/2000/svg" width="35" height="35" viewBox="0 0 35 35">
    <g fill="none" fill-rule="evenodd">
        <circle cx="17.392" cy="17.392" r="16.62" fill="#1F3F79" fill-rule="nonzero"/>
        <path fill="#FFF" d="M17.5 8.235c.203 0 .407.038.599.112l.141.063 6.597 3.34c.446.225.744.635.796 1.103l.04.39c.15 1.716.123 4.538-1.135 7.183-1.663 3.492-4.516 5.322-6.352 6.186-.217.101-.451.153-.686.153-.235 0-.47-.052-.687-.153l-.393-.193c-1.83-.932-4.41-2.742-5.958-5.993-1.359-2.857-1.28-5.92-1.095-7.573.046-.416.287-.786.653-1.022l.143-.081 6.597-3.34c.23-.116.485-.175.74-.175zm0 1.03c-.065 0-.129.01-.188.028l-.087.036-6.597 3.339c-.138.07-.225.179-.238.3-.167 1.484-.257 4.368 1.002 7.015 1.491 3.132 4.01 4.827 5.86 5.697.076.036.163.055.248.055.085 0 .172-.02.248-.055 1.85-.87 4.369-2.565 5.86-5.697 1.26-2.647 1.169-5.531 1.002-7.014-.01-.098-.068-.187-.162-.255l-.077-.046-6.596-3.34c-.083-.042-.178-.063-.275-.063zm.342 4.117c.318 0 .575.257.575.574v2.482c0 .066.054.12.12.12h2.506c.317 0 .575.256.575.573v.759c0 .317-.258.572-.575.572h-2.507c-.065 0-.119.054-.119.12v2.463c0 .317-.257.573-.575.573h-.685c-.318 0-.574-.256-.574-.573V18.58c0-.065-.054-.119-.12-.119h-2.506c-.317 0-.575-.255-.575-.572v-.76c0-.316.258-.573.575-.573h2.507c.065 0 .119-.053.119-.119v-2.482c0-.317.256-.574.574-.574h.685z"/>
        <path fill="#FDC13C" fill-rule="nonzero" d="M17.392 34.784C7.787 34.784 0 26.997 0 17.392S7.787 0 17.392 0s17.392 7.787 17.392 17.392c-.012 9.6-7.792 17.38-17.392 17.392zm0-33.24c-8.753 0-15.848 7.095-15.848 15.848 0 8.752 7.095 15.848 15.848 15.848 8.752 0 15.848-7.096 15.848-15.848-.009-8.75-7.1-15.84-15.848-15.848z"/>
    </g>
</svg>
