<svg xmlns="http://www.w3.org/2000/svg" width="92" height="73" viewBox="0 0 92 73">
    <g fill="none" fill-rule="nonzero">
        <path fill="#FFC84C" d="M59.786 30.875h2.572c.163-.025.323-.068.476-.129.304-.134.568-.343.768-.608l.14-.21.093-.199.105-.246.232-.502 3.618-7.963 1.408-3.157.233 1.17c.57 2.864 1.163 5.717 1.791 8.57l.466 2.175a2.117 2.117 0 0 0 1.454 1.555c.112.044.23.071.349.082h11.727l-.885.608-3.606 2.455-3.595 2.467-1.791 1.24-.233.152c-.175.125-.335.27-.477.432a2.484 2.484 0 0 0-.558 1.17 2.35 2.35 0 0 0 0 .701v.397l.116.527c.628 2.853 1.315 5.683 1.966 8.524l.5 2.14.151.62-1.675-1.17-7.213-4.665-.453-.304-.152-.106-.267-.14a2.213 2.213 0 0 0-.64-.152 1.98 1.98 0 0 0-1.082.222l-.221.14-.105.082-.22.153-1.734 1.274-3.49 2.549c-1.164.842-2.327 1.707-3.49 2.56l-1.769 1.287-.442.316a.371.371 0 0 1-.197.093.256.256 0 0 1-.28-.14.305.305 0 0 1 0-.21l.082-.211.093-.257.384-1.03.768-2.046c.511-1.368 1.023-2.736 1.512-4.115a.14.14 0 1 0-.256-.105c-.651 1.309-1.291 2.619-1.92 3.928l-.942 1.976-.477.994-.116.246c0 .081-.07.14-.128.292a1.445 1.445 0 0 0 0 .865c.088.298.272.557.523.737.257.176.562.266.873.257a1.6 1.6 0 0 0 .803-.269l.465-.292 1.838-1.17a244.673 244.673 0 0 0 3.688-2.338l3.665-2.338 1.838-1.17.232-.152h.058l.443.328 7.073 5.098 1.768 1.274.442.316.14.093c.087.065.18.12.279.164.202.11.423.181.651.21.43.053.865-.016 1.257-.198a2.33 2.33 0 0 0 .896-.772c.245-.342.386-.748.407-1.17a1.657 1.657 0 0 0 0-.338.693.693 0 0 0 0-.152v-.2l-.058-.268-.233-1.076-.617-2.163c-.604-2.853-1.163-5.718-1.803-8.559l-.128-.374 1.815-1.17 3.618-2.443 3.607-2.432 1.803-1.17.454-.315.104-.07.105-.07.116-.106a2.346 2.346 0 0 0 .512-3.157 2.2 2.2 0 0 0-1.605-.97H74.177l-.384-1.649c-.663-2.841-1.303-5.682-1.989-8.524l-.512-2.14a2.036 2.036 0 0 0-.733-1.169 2.097 2.097 0 0 0-2.327-.058 2.252 2.252 0 0 0-.779.842c-.093.21-.105.257-.14.35l-.104.246-.21.514-.407 1.006-.826 2.023-3.234 8.185-.326.842s0 .058-.07.07c-.07.011 0 0 0 0h-.162l-2.176.105-4.35.199c-5.802.273-11.619.58-17.451.923-.122 0-.221.1-.221.223 0 .129.104.233.232.233h17.45l4.328-.093zm31.05 1.73a4.205 4.205 0 0 1-1.454 1.778l-3.548 2.338-6.98 4.677 1.699 7.694.43 1.976.21.982c.07.328.162.655.209 1.018a4.193 4.193 0 0 1-1.594 3.788 4.166 4.166 0 0 1-1.931.842c-.707.11-1.43.03-2.094-.234a4.554 4.554 0 0 1-.931-.526l-.791-.62-1.605-1.17-6.283-4.817-5.654 3.578c-.977.608-1.954 1.17-2.931 1.801l-1.478.889a6.44 6.44 0 0 1-1.582.713 3.844 3.844 0 0 1-1.745.117 2.03 2.03 0 0 1-.814-.35 1.811 1.811 0 0 1-.547-.714 4.006 4.006 0 0 1-.268-1.73c.022-.293.085-.58.186-.854.117-.27.256-.526.384-.784a251.31 251.31 0 0 0 1.56-3.063c.511-1.03 1.011-2.058 1.558-3.075-.535 1.017-1.024 2.058-1.512 3.098-.489 1.04-1 2.07-1.513 3.099-.136.249-.257.507-.36.772-.094.263-.153.539-.175.818a3.805 3.805 0 0 0 .291 1.649c.215.518.69.88 1.245.947a3.6 3.6 0 0 0 1.652-.129 6.42 6.42 0 0 0 1.512-.725l1.466-.959 2.909-1.824 5.816-3.706a.197.197 0 0 1 .21 0l6.433 4.84 1.606 1.17.802.608c.256.186.533.339.826.456.584.231 1.22.3 1.838.199a3.783 3.783 0 0 0 1.71-.76 3.774 3.774 0 0 0 1.164-1.485 3.7 3.7 0 0 0 .244-1.848c0-.304-.128-.631-.198-.959l-.209-.982-.442-1.976-1.815-7.764a.27.27 0 0 1 .116-.28L85.52 36.3l3.49-2.338a3.842 3.842 0 0 0 1.257-1.509c.265-.61.361-1.28.279-1.94a3.599 3.599 0 0 0-.78-1.79 3.407 3.407 0 0 0-1.628-1.064 3.034 3.034 0 0 0-.966-.152H75.48a.291.291 0 0 1-.267-.21l-1.827-8.454-.465-2.093a8.666 8.666 0 0 0-.244-1.017 3.304 3.304 0 0 0-.43-.889 3.494 3.494 0 0 0-1.525-1.24 3.639 3.639 0 0 0-3.758.62 3.823 3.823 0 0 0-1.163 1.66l-1.57 3.976-3.118 7.951a.128.128 0 0 1-.128.106l-22.977 1.438L60.892 27.6l3.024-7.893 1.524-4.034a4.386 4.386 0 0 1 1.234-1.847 4.148 4.148 0 0 1 4.234-.713 3.878 3.878 0 0 1 1.745 1.403c.213.314.381.657.5 1.017.117.374.187.713.268 1.064l.454 2.081 1.815 8.185h11.529c.394-.002.787.057 1.163.176a4.058 4.058 0 0 1 1.896 1.24c.487.597.804 1.316.92 2.08a4.275 4.275 0 0 1-.361 2.245z"/>
        <path fill="#00377B" d="M16.66 30.127a4.008 4.008 0 0 1 1.397 3.274 7.22 7.22 0 0 1-.92 3.671 6.294 6.294 0 0 1-2.652 2.455 9.07 9.07 0 0 1-4.083.866h-2.78l-.873 4.373H2.642l3.141-15.809h6.887a6.028 6.028 0 0 1 3.99 1.17zM13.17 36.3a2.849 2.849 0 0 0 .885-2.175 1.711 1.711 0 0 0-.57-1.391 2.492 2.492 0 0 0-1.64-.48H9.237l-1 4.841h2.606a3.235 3.235 0 0 0 2.361-.795h-.034zm15.206-3.893l-.466 3.683a4.028 4.028 0 0 0-.581 0 4.37 4.37 0 0 0-2.595.783 3.508 3.508 0 0 0-1.372 2.011l-1.164 5.847h-4.013l2.42-12.196h3.99l-.373 1.894a5.133 5.133 0 0 1 4.189-2.022h-.035zm3.548 12.359h-3.909l2.327-12.196h3.967l-2.385 12.196zm2.78-17.329c.32.345.487.804.466 1.275a2.344 2.344 0 0 1-.745 1.789 2.518 2.518 0 0 1-1.826.736 1.694 1.694 0 0 1-1.257-.479 1.759 1.759 0 0 1-.477-1.275 2.426 2.426 0 0 1 .756-1.8 2.506 2.506 0 0 1 1.804-.725c.485-.033.962.141 1.314.48h-.035zm21.616 6.069a3.833 3.833 0 0 1 1.163 2.876 5.98 5.98 0 0 1-.105 1.17l-1.442 7.214h-4.002l1.303-6.63c.043-.2.067-.403.07-.608.022-.466-.15-.92-.477-1.251a1.786 1.786 0 0 0-1.292-.468 2.518 2.518 0 0 0-1.791.772 3.724 3.724 0 0 0-1.036 1.988l-1.233 6.197h-3.99l1.314-6.63a2.75 2.75 0 0 0 .07-.585 1.7 1.7 0 0 0-.465-1.274 1.81 1.81 0 0 0-1.303-.468c-.68.002-1.331.28-1.803.772a3.654 3.654 0 0 0-1.047 1.988l-1.234 6.197h-4.025l2.397-12.196h3.99l-.314 1.626a4.644 4.644 0 0 1 3.77-1.79 4.532 4.532 0 0 1 2.57.714 3.402 3.402 0 0 1 1.396 1.953 5.289 5.289 0 0 1 4.49-2.666 4.164 4.164 0 0 1 3.06 1.099h-.034zm13.03-.374a5.047 5.047 0 0 1 2.105 1.964c.52.893.786 1.912.768 2.946a6.843 6.843 0 0 1-.93 3.508 6.343 6.343 0 0 1-2.56 2.48 7.936 7.936 0 0 1-3.77.864 7.055 7.055 0 0 1-3.21-.69 5.001 5.001 0 0 1-2.106-1.976 5.74 5.74 0 0 1-.745-2.97 6.808 6.808 0 0 1 .931-3.507 6.201 6.201 0 0 1 2.583-2.409 8.005 8.005 0 0 1 3.769-.865 6.95 6.95 0 0 1 3.2.655h-.036zm-5.631 3.507a3.625 3.625 0 0 0-.803 2.42 2.874 2.874 0 0 0 .628 1.93 2.078 2.078 0 0 0 1.675.725c.812.02 1.59-.327 2.118-.947a3.625 3.625 0 0 0 .826-2.456 2.816 2.816 0 0 0-.594-1.894 2.1 2.1 0 0 0-1.686-.736 2.681 2.681 0 0 0-2.13.947l-.034.011z"/>
    </g>
</svg>
